<?xml version="1.0" standalone="no"?>
<!DOCTYPE svg PUBLIC "-//W3C//DTD SVG 20010904//EN"
 "http://www.w3.org/TR/2001/REC-SVG-20010904/DTD/svg10.dtd">
<svg version="1.0" xmlns="http://www.w3.org/2000/svg"
 width="564.000000pt" height="564.000000pt" viewBox="0 0 564.000000 564.000000"
 preserveAspectRatio="xMidYMid meet">
<metadata>
Created by potrace 1.14, written by Peter Selinger 2001-2017
</metadata>
<g transform="translate(0.000000,564.000000) scale(0.100000,-0.100000)"
fill="#000000" stroke="none">
<path d="M2545 5609 c-546 -56 -1054 -264 -1485 -607 -117 -93 -333 -308 -424
-422 -337 -422 -550 -938 -607 -1467 -18 -172 -7 -585 20 -743 103 -599 367
-1113 787 -1534 421 -420 935 -684 1534 -787 159 -27 572 -38 743 -19 532 57
1045 269 1467 606 114 91 329 307 422 424 426 534 636 1166 615 1845 -14 438
-111 813 -311 1201 -412 798 -1181 1348 -2078 1485 -153 23 -535 34 -683 18z
m303 -916 c-10 -2 -28 -2 -40 0 -13 2 -5 4 17 4 22 1 32 -1 23 -4z m872 -2058
c0 -9 9 -15 25 -15 14 0 25 -4 25 -10 0 -5 7 -10 15 -10 8 0 23 -4 33 -9 9 -5
28 -13 42 -19 14 -6 51 -22 82 -36 31 -14 59 -26 62 -26 4 0 28 -9 54 -21 26
-12 58 -26 72 -31 14 -6 33 -14 42 -19 10 -5 25 -9 33 -9 8 0 15 -4 15 -10 0
-5 11 -10 25 -10 14 0 25 -4 25 -10 0 -5 11 -10 24 -10 14 0 28 -4 31 -10 3
-5 15 -10 26 -10 10 0 19 -4 19 -9 0 -5 12 -11 28 -14 15 -4 34 -11 42 -16 13
-9 12 -13 -8 -28 -13 -10 -33 -26 -45 -36 -27 -23 -63 -19 -143 18 -33 15 -68
30 -79 34 -39 16 -80 33 -97 42 -10 5 -25 9 -33 9 -8 0 -15 5 -15 10 0 6 -9
10 -20 10 -11 0 -30 5 -43 12 -47 24 -57 28 -72 28 -8 0 -15 4 -15 8 0 5 -22
15 -50 22 -27 7 -50 17 -50 20 0 4 -18 12 -40 19 -32 9 -48 9 -75 0 -19 -7
-35 -17 -35 -21 0 -4 -9 -8 -20 -8 -11 0 -28 -4 -38 -9 -25 -13 -114 -52 -137
-61 -28 -10 -63 -25 -117 -49 -26 -12 -54 -21 -62 -21 -8 0 -18 -4 -21 -10 -3
-5 -13 -10 -22 -10 -9 0 -24 -6 -32 -13 -9 -7 -34 -19 -56 -26 -39 -13 -115
-45 -145 -60 -13 -7 -15 -51 -15 -307 0 -300 7 -371 45 -514 19 -72 75 -193
102 -224 10 -11 18 -26 18 -33 0 -7 3 -13 8 -13 4 0 18 -18 32 -40 14 -22 28
-40 32 -40 5 0 8 -5 8 -10 0 -24 221 -229 314 -292 33 -23 63 -45 64 -50 2 -4
12 -8 23 -8 10 0 19 -4 19 -10 0 -5 6 -10 14 -10 8 0 16 -5 18 -12 5 -15 81
-14 86 1 2 6 10 11 18 11 8 0 14 5 14 10 0 6 6 10 13 10 7 0 23 9 35 20 12 11
25 20 30 20 4 0 17 8 28 18 10 9 39 33 64 52 104 80 196 172 275 275 20 28 40
52 44 55 6 5 35 57 70 125 28 57 61 157 61 188 0 14 5 29 10 32 6 3 10 30 10
60 0 30 4 65 10 79 5 14 12 107 16 208 l7 183 31 40 c50 64 69 85 78 85 11 0
3 -413 -11 -530 -12 -106 -35 -228 -51 -265 -4 -11 -13 -36 -20 -55 -17 -48
-36 -88 -66 -135 -14 -22 -27 -48 -31 -58 -3 -9 -9 -17 -14 -17 -5 0 -9 -7 -9
-15 0 -8 -4 -15 -10 -15 -5 0 -10 -6 -10 -13 0 -31 -279 -312 -343 -346 -15
-8 -27 -18 -27 -23 0 -4 -7 -8 -15 -8 -8 0 -15 -4 -15 -9 0 -5 -9 -13 -20 -16
-11 -3 -26 -12 -32 -18 -27 -25 -128 -87 -143 -87 -8 0 -15 -4 -15 -10 0 -5
-13 -10 -30 -10 -16 0 -30 4 -30 9 0 5 -8 11 -17 14 -18 6 -73 37 -83 47 -9
10 -90 60 -95 60 -3 0 -17 11 -31 25 -14 14 -29 25 -33 25 -5 0 -22 12 -39 28
-16 15 -55 50 -87 77 -62 53 -118 110 -144 147 -8 13 -28 36 -43 52 -16 16
-28 33 -28 37 0 5 -9 19 -20 32 -24 28 -49 70 -85 147 -15 30 -31 63 -36 72
-5 10 -9 27 -9 37 0 11 -4 22 -9 25 -5 3 -11 20 -14 38 -4 18 -11 58 -17 88
-5 30 -14 93 -19 140 -6 46 -14 86 -20 88 -13 4 -16 522 -3 522 5 0 13 21 18
47 5 25 16 49 24 53 8 4 29 13 45 20 17 7 38 16 47 21 10 5 25 9 33 9 8 0 15
5 15 10 0 6 11 10 25 10 14 0 25 5 25 10 0 6 9 10 19 10 11 0 23 5 26 10 3 6
17 10 31 10 13 0 24 5 24 10 0 6 7 10 15 10 8 0 23 4 33 9 9 5 31 14 47 21 17
7 41 18 55 25 14 7 43 18 65 25 22 7 60 22 85 32 25 11 56 25 70 30 14 6 33
14 42 19 10 5 25 9 33 9 8 0 15 5 15 10 0 6 9 10 20 10 11 0 23 7 26 15 4 8
17 15 30 15 15 0 24 -6 24 -15z m983 -239 c-10 -14 -23 -26 -30 -26 -6 0 -13
-4 -15 -9 -1 -5 -32 -41 -68 -81 -36 -40 -70 -80 -76 -89 -7 -9 -45 -50 -85
-92 -41 -41 -86 -91 -101 -111 -15 -19 -44 -54 -65 -76 -21 -22 -51 -57 -68
-77 -16 -21 -35 -42 -40 -49 -6 -6 -22 -27 -35 -46 -14 -19 -37 -48 -52 -64
-16 -16 -28 -33 -28 -38 0 -5 -9 -19 -20 -31 -23 -25 -71 -90 -120 -162 -18
-27 -36 -52 -39 -55 -3 -3 -12 -17 -20 -32 -8 -16 -18 -28 -23 -28 -4 0 -8 -9
-8 -20 0 -11 -4 -20 -8 -20 -5 0 -14 -16 -22 -35 -8 -19 -17 -35 -21 -35 -3 0
-18 -27 -33 -61 -15 -33 -33 -58 -39 -56 -11 3 -46 70 -138 258 -47 96 -84
164 -91 167 -5 2 -8 9 -8 16 0 7 -23 57 -50 111 -27 54 -50 104 -50 111 0 7
-3 14 -7 16 -5 2 -18 24 -30 50 -20 41 -20 46 -5 41 9 -4 24 -14 32 -22 8 -9
35 -33 60 -53 25 -20 59 -49 75 -63 17 -15 46 -39 65 -54 19 -14 51 -42 70
-61 19 -20 52 -48 72 -64 l38 -28 27 29 c16 17 75 81 133 143 58 62 122 129
144 149 21 20 71 68 110 106 39 39 94 88 121 110 28 22 62 52 77 68 14 15 29
27 33 27 7 0 141 109 181 148 13 12 27 22 32 22 5 0 23 14 40 30 18 17 35 30
39 30 5 0 19 9 33 20 32 24 37 18 13 -14z m-1875 -1253 c-10 -2 -26 -2 -35 0
-10 3 -2 5 17 5 19 0 27 -2 18 -5z"/>
</g>
</svg>
